<svg xmlns="http://www.w3.org/2000/svg" width="600" height="600" viewBox="0 0 600 600"><rect width="100%" height="100%" fill="#4F46E5"/><path fill="#FFFFFF" d="M147.75 300.325h15.84v19.31q-3.63 2.67-7.73 3.91-4.11 1.24-8.8 1.24-5.84 0-10.58-1.82-4.73-1.81-8.08-5.05-3.35-3.23-5.16-7.72-1.82-4.49-1.82-9.8 0-5.38 1.75-9.87 1.75-4.48 4.97-7.72 3.21-3.23 7.8-5.01 4.59-1.79 10.3-1.79 2.9 0 5.42.47 2.53.46 4.69 1.27 2.16.8 3.94 1.96 1.79 1.15 3.27 2.54l-2.54 4.03q-.59.95-1.55 1.17-.96.21-2.08-.48-1.09-.63-2.18-1.25-1.09-.63-2.42-1.09-1.34-.46-3.01-.76-1.66-.3-3.84-.3-3.53 0-6.39 1.19-2.85 1.19-4.86 3.4-2.02 2.21-3.11 5.31-1.08 3.1-1.08 6.93 0 4.09 1.17 7.31t3.3 5.45q2.13 2.22 5.13 3.39 3 1.18 6.7 1.18 2.64 0 4.72-.57 2.08-.56 4.06-1.51v-8.65h-6.01q-.86 0-1.34-.48t-.48-1.17zm30.33-7.88.5 3.83q1.58-3.04 3.76-4.77t5.15-1.73q2.34 0 3.76 1.02l-.53 6.1q-.16.6-.48.84-.31.25-.84.25-.49 0-1.47-.16-.97-.17-1.9-.17-1.35 0-2.4.4-1.06.39-1.9 1.14-.84.74-1.49 1.79-.64 1.06-1.2 2.41v20.86h-8.15v-33.86h4.78q1.26 0 1.75.45.5.44.66 1.6m17.69-2.05h8.18v33.86h-8.18zm9.31-9.87q0 1.06-.43 1.98-.43.93-1.14 1.62t-1.67 1.11q-.96.41-2.04.41-1.06 0-2-.41-.94-.42-1.63-1.11-.7-.69-1.11-1.62-.41-.92-.41-1.98 0-1.08.41-2.04t1.11-1.65q.69-.69 1.63-1.11.94-.41 2-.41 1.08 0 2.04.41.96.42 1.67 1.11t1.14 1.65.43 2.04m28.44 33.7v-15.18q-1.38-1.68-3.02-2.38-1.63-.69-3.51-.69-1.85 0-3.34.69-1.48.7-2.54 2.1-1.05 1.4-1.61 3.56t-.56 5.1q0 2.97.47 5.03.48 2.06 1.37 3.37.89 1.3 2.18 1.88t2.87.58q2.54 0 4.33-1.06 1.78-1.06 3.36-3m0-39.01h8.15v49.04h-4.98q-1.62 0-2.05-1.49l-.69-3.26q-2.05 2.34-4.7 3.79-2.66 1.45-6.19 1.45-2.77 0-5.08-1.15-2.31-1.16-3.98-3.35-1.66-2.19-2.57-5.43-.91-3.23-.91-7.39 0-3.76 1.02-7 1.03-3.23 2.94-5.61 1.91-2.37 4.59-3.71 2.67-1.33 6-1.33 2.84 0 4.85.89 2.02.89 3.6 2.4zm42.41 25.31h6.63q2.44 0 4.26-.61 1.81-.61 3.02-1.75 1.2-1.14 1.79-2.77.6-1.63.6-3.65 0-1.91-.6-3.46-.59-1.55-1.78-2.64t-3-1.67q-1.82-.57-4.29-.57h-6.63zm-8.88-23.99h15.51q4.78 0 8.28 1.12 3.5 1.13 5.78 3.14 2.27 2.01 3.38 4.82 1.11 2.8 1.11 6.13 0 3.47-1.16 6.36-1.15 2.88-3.46 4.96t-5.8 3.24q-3.48 1.15-8.13 1.15h-6.63v16.8h-8.88zm57.45 38.97v-5.7q-3.53.16-5.94.61-2.41.44-3.86 1.13-1.45.7-2.08 1.62-.62.93-.62 2.01 0 2.15 1.27 3.07 1.27.93 3.31.93 2.51 0 4.34-.91t3.58-2.76m-17.22-17.78-1.46-2.61q5.85-5.34 14.06-5.34 2.97 0 5.32.97 2.34.97 3.96 2.7 1.61 1.74 2.45 4.15.85 2.4.85 5.28v21.38h-3.7q-1.16 0-1.78-.35-.63-.34-.99-1.4l-.73-2.44q-1.29 1.15-2.51 2.03-1.22.87-2.54 1.47-1.32.59-2.82.9-1.5.32-3.32.32-2.14 0-3.96-.58-1.81-.58-3.13-1.73-1.32-1.16-2.05-2.87-.72-1.72-.72-4 0-1.28.43-2.55t1.4-2.43q.97-1.15 2.52-2.18 1.55-1.02 3.81-1.78 2.27-.76 5.27-1.24 3-.47 6.86-.57v-1.98q0-3.4-1.45-5.04-1.45-1.63-4.19-1.63-1.98 0-3.28.46-1.31.46-2.3 1.04t-1.8 1.04q-.8.46-1.79.46-.86 0-1.46-.44-.59-.45-.95-1.04m44.12 27.06q-4.42 0-6.78-2.49-2.36-2.5-2.36-6.88v-18.91h-3.47q-.66 0-1.12-.43t-.46-1.29v-3.23l5.44-.89 1.72-9.24q.16-.66.63-1.03.46-.36 1.18-.36h4.23v10.66h9.04v5.81h-9.04v18.34q0 1.59.77 2.48.78.89 2.13.89.76 0 1.27-.18t.89-.38.68-.38.59-.18q.37 0 .6.18t.49.54l2.44 3.96q-1.78 1.49-4.09 2.25t-4.78.76m24.55 0q-4.42 0-6.78-2.49-2.36-2.5-2.36-6.88v-18.91h-3.47q-.66 0-1.12-.43t-.46-1.29v-3.23l5.44-.89 1.72-9.24q.17-.66.63-1.03.46-.36 1.19-.36h4.22v10.66H384v5.81h-9.04v18.34q0 1.59.77 2.48.78.89 2.13.89.76 0 1.27-.18.52-.18.89-.38.38-.2.68-.38t.6-.18q.36 0 .59.18t.49.54l2.45 3.96q-1.79 1.49-4.1 2.25t-4.78.76m19.7-21.35h15.38q0-1.59-.45-2.99-.44-1.4-1.33-2.46-.89-1.05-2.26-1.66-1.37-.62-3.19-.62-3.53 0-5.56 2.02-2.03 2.01-2.59 5.71m20.79 4.91h-20.95q.19 2.61.92 4.51t1.91 3.13q1.19 1.24 2.82 1.85 1.64.61 3.62.61t3.41-.46q1.44-.46 2.51-1.02t1.88-1.03q.81-.46 1.57-.46 1.02 0 1.52.76l2.34 2.97q-1.35 1.58-3.03 2.66-1.69 1.07-3.52 1.71-1.83.65-3.73.91t-3.68.26q-3.53 0-6.56-1.17-3.04-1.17-5.28-3.46-2.25-2.3-3.54-5.68-1.28-3.38-1.28-7.84 0-3.46 1.12-6.51 1.12-3.06 3.22-5.32 2.09-2.26 5.11-3.58t6.82-1.32q3.2 0 5.9 1.03 2.71 1.02 4.66 2.98 1.94 1.97 3.05 4.82 1.1 2.86 1.1 6.52 0 1.85-.39 2.49-.4.64-1.52.64m15.21-15.9.5 3.83q1.58-3.04 3.76-4.77t5.15-1.73q2.34 0 3.76 1.02l-.53 6.1q-.16.6-.48.84-.31.25-.84.25-.49 0-1.47-.16-.97-.17-1.89-.17-1.36 0-2.41.4-1.06.39-1.9 1.14-.84.74-1.49 1.79-.64 1.06-1.2 2.41v20.86h-8.15v-33.86h4.78q1.26 0 1.75.45.5.44.66 1.6m24.49-.56.56 2.67q1.02-1.02 2.16-1.9 1.14-.87 2.41-1.48t2.72-.96q1.46-.35 3.17-.35 2.77 0 4.92.94 2.14.94 3.58 2.64 1.43 1.7 2.18 4.06.74 2.36.74 5.2v21.55h-8.15v-21.55q0-3.1-1.42-4.8t-4.32-1.7q-2.12 0-3.96.96-1.85.95-3.5 2.6v24.49h-8.15v-33.86h4.98q1.58 0 2.08 1.49"/></svg>